<svg width="16" height="17" viewBox="0 0 16 17" fill="none" xmlns="http://www.w3.org/2000/svg">
<path d="M12.0263 11.5799L14.8797 14.4332L13.933 15.3799L11.0797 12.5265C10.5463 12.9443 9.95967 13.2665 9.31967 13.4932C8.67967 13.7199 8.01745 13.8332 7.33301 13.8332C6.24856 13.8332 5.23967 13.5621 4.30634 13.0199C3.39967 12.4865 2.67967 11.7665 2.14634 10.8599C1.60412 9.92655 1.33301 8.91766 1.33301 7.83322C1.33301 6.74877 1.60412 5.73988 2.14634 4.80655C2.67967 3.89988 3.39967 3.17988 4.30634 2.64655C5.23967 2.10433 6.24856 1.83322 7.33301 1.83322C8.41745 1.83322 9.42634 2.10433 10.3597 2.64655C11.2663 3.17988 11.9863 3.89988 12.5197 4.80655C13.0619 5.73988 13.333 6.74877 13.333 7.83322C13.333 8.51766 13.2197 9.17988 12.993 9.81988C12.7663 10.4599 12.4441 11.0465 12.0263 11.5799ZM10.6797 11.0865C11.1063 10.651 11.433 10.151 11.6597 9.58655C11.8863 9.0221 11.9997 8.43766 11.9997 7.83322C11.9997 6.98877 11.7863 6.2021 11.3597 5.47322C10.9508 4.77099 10.3952 4.21544 9.69301 3.80655C8.96412 3.37988 8.17745 3.16655 7.33301 3.16655C6.48856 3.16655 5.7019 3.37988 4.97301 3.80655C4.27079 4.21544 3.71523 4.77099 3.30634 5.47322C2.87967 6.2021 2.66634 6.98877 2.66634 7.83322C2.66634 8.67766 2.87967 9.46433 3.30634 10.1932C3.71523 10.8954 4.27079 11.451 4.97301 11.8599C5.7019 12.2865 6.48856 12.4999 7.33301 12.4999C7.93745 12.4999 8.5219 12.3865 9.08634 12.1599C9.65079 11.9332 10.1508 11.6065 10.5863 11.1799L10.6797 11.0865Z" fill="#204C86"/>
</svg>
