<svg width="20" height="21" viewBox="0 0 20 21" fill="none" xmlns="http://www.w3.org/2000/svg">
<mask id="mask0_3035_81" style="mask-type:alpha" maskUnits="userSpaceOnUse" x="0" y="0" width="20" height="21">
<rect y="0.109863" width="20" height="20" fill="#D9D9D9"/>
</mask>
<g mask="url(#mask0_3035_81)">
<path d="M4.16667 17.6099C3.70833 17.6099 3.31597 17.4467 2.98958 17.1203C2.66319 16.7939 2.5 16.4015 2.5 15.9432V4.27653C2.5 3.8182 2.66319 3.42584 2.98958 3.09945C3.31597 2.77306 3.70833 2.60986 4.16667 2.60986H15.8333C16.2917 2.60986 16.684 2.77306 17.0104 3.09945C17.3368 3.42584 17.5 3.8182 17.5 4.27653V6.35986H15.8333V4.27653H4.16667V15.9432H15.8333V13.8599H17.5V15.9432C17.5 16.4015 17.3368 16.7939 17.0104 17.1203C16.684 17.4467 16.2917 17.6099 15.8333 17.6099H4.16667ZM10.8333 14.2765C10.375 14.2765 9.98264 14.1133 9.65625 13.7869C9.32986 13.4606 9.16667 13.0682 9.16667 12.6099V7.60986C9.16667 7.15153 9.32986 6.75917 9.65625 6.43278C9.98264 6.10639 10.375 5.9432 10.8333 5.9432H16.6667C17.125 5.9432 17.5174 6.10639 17.8438 6.43278C18.1701 6.75917 18.3333 7.15153 18.3333 7.60986V12.6099C18.3333 13.0682 18.1701 13.4606 17.8438 13.7869C17.5174 14.1133 17.125 14.2765 16.6667 14.2765H10.8333ZM16.6667 12.6099V7.60986H10.8333V12.6099H16.6667ZM13.3333 11.3599C13.6806 11.3599 13.9757 11.2383 14.2188 10.9953C14.4618 10.7522 14.5833 10.4571 14.5833 10.1099C14.5833 9.76264 14.4618 9.4675 14.2188 9.22445C13.9757 8.98139 13.6806 8.85986 13.3333 8.85986C12.9861 8.85986 12.691 8.98139 12.4479 9.22445C12.2049 9.4675 12.0833 9.76264 12.0833 10.1099C12.0833 10.4571 12.2049 10.7522 12.4479 10.9953C12.691 11.2383 12.9861 11.3599 13.3333 11.3599Z" fill="#1E1E1E"/>
</g>
</svg>
