<svg width="20" height="21" viewBox="0 0 20 21" fill="none" xmlns="http://www.w3.org/2000/svg">
<mask id="mask0_3035_60" style="mask-type:alpha" maskUnits="userSpaceOnUse" x="0" y="0" width="20" height="21">
<rect y="0.109863" width="20" height="20" fill="#D9D9D9"/>
</mask>
<g mask="url(#mask0_3035_60)">
<path d="M5.83333 14.2765H11.6667V12.6099H5.83333V14.2765ZM5.83333 10.9432H14.1667V9.27653H5.83333V10.9432ZM5.83333 7.60986H14.1667V5.9432H5.83333V7.60986ZM4.16667 17.6099C3.70833 17.6099 3.31597 17.4467 2.98958 17.1203C2.66319 16.7939 2.5 16.4015 2.5 15.9432V4.27653C2.5 3.8182 2.66319 3.42584 2.98958 3.09945C3.31597 2.77306 3.70833 2.60986 4.16667 2.60986H15.8333C16.2917 2.60986 16.684 2.77306 17.0104 3.09945C17.3368 3.42584 17.5 3.8182 17.5 4.27653V15.9432C17.5 16.4015 17.3368 16.7939 17.0104 17.1203C16.684 17.4467 16.2917 17.6099 15.8333 17.6099H4.16667ZM4.16667 15.9432H15.8333V4.27653H4.16667V15.9432Z" fill="#1E1E1E"/>
</g>
</svg>
