<svg width="20" height="21" viewBox="0 0 20 21" fill="none" xmlns="http://www.w3.org/2000/svg">
<path fill-rule="evenodd" clip-rule="evenodd" d="M10.5377 4.49646C10.2071 4.2974 9.79356 4.2974 9.46298 4.49646L9.03273 4.75554C7.8817 5.44863 6.58952 5.87393 5.25185 5.99996L4.98078 6.0255C4.87377 6.03558 4.79199 6.12542 4.79199 6.23291V7.60282C4.79199 9.69243 5.64035 11.6925 7.14272 13.1449L9.85553 15.7674C9.93628 15.8455 10.0644 15.8455 10.1451 15.7674L12.8579 13.1449C14.3603 11.6925 15.2087 9.69243 15.2087 7.60282V6.23291C15.2087 6.12542 15.1269 6.03558 15.0199 6.0255L14.7488 5.99996C13.4111 5.87393 12.1189 5.44863 10.9679 4.75554L10.5377 4.49646ZM8.81817 3.42561C9.54544 2.98769 10.4552 2.98769 11.1825 3.42561L11.6127 3.68469C12.6032 4.28107 13.715 4.64703 14.866 4.75547L15.1371 4.78101C15.8862 4.85158 16.4587 5.48049 16.4587 6.23291V7.60282C16.4587 10.0313 15.4727 12.3557 13.7267 14.0436L11.0139 16.6661C10.4487 17.2126 9.55199 17.2126 8.98673 16.6661L6.27392 14.0436C4.52792 12.3557 3.54199 10.0313 3.54199 7.60282V6.23291C3.54199 5.48049 4.11443 4.85158 4.86354 4.78101L5.1346 4.75547C6.28562 4.64703 7.3975 4.28107 8.38792 3.68469L8.81817 3.42561Z" fill="#1E1E1E"/>
</svg>
