<svg width="23" height="23" viewBox="0 0 23 23" fill="none" xmlns="http://www.w3.org/2000/svg">
<path d="M2.33398 3.82682C2.33398 3.57016 2.4226 3.35321 2.59982 3.17599C2.77704 2.99877 2.99398 2.91016 3.25065 2.91016H19.7507C20.0073 2.91016 20.2243 2.99877 20.4015 3.17599C20.5787 3.35321 20.6673 3.57016 20.6673 3.82682V18.4935C20.6673 18.7502 20.5787 18.9671 20.4015 19.1443C20.2243 19.3215 20.0073 19.4102 19.7507 19.4102H3.25065C2.99398 19.4102 2.77704 19.3215 2.59982 19.1443C2.4226 18.9671 2.33398 18.7502 2.33398 18.4935V3.82682ZM4.16732 4.74349V17.5768H18.834V4.74349H4.16732ZM6.00065 6.57682H11.5007V12.0768H6.00065V6.57682ZM7.83398 8.41016V10.2435H9.66732V8.41016H7.83398ZM6.00065 13.9102H17.0007V15.7435H6.00065V13.9102ZM13.334 6.57682H17.0007V8.41016H13.334V6.57682ZM13.334 10.2435H17.0007V12.0768H13.334V10.2435Z" fill="#204C86"/>
</svg>
