<svg width="23" height="23" viewBox="0 0 23 23" fill="none" xmlns="http://www.w3.org/2000/svg">
<path d="M14.25 3.82715H5.08333V18.4938H17.9167V7.49382H14.25V3.82715ZM3.25 2.91048C3.25 2.65382 3.33861 2.43687 3.51583 2.25965C3.69306 2.08243 3.91 1.99382 4.16667 1.99382H15.1667L19.75 6.57715V19.4105C19.75 19.6549 19.6614 19.8688 19.4842 20.0521C19.3069 20.2355 19.09 20.3271 18.8333 20.3271H4.16667C3.91 20.3271 3.69306 20.2385 3.51583 20.0613C3.33861 19.8841 3.25 19.6671 3.25 19.4105V2.91048ZM11.5 10.7021C11.0844 10.7021 10.7025 10.5983 10.3542 10.3905C10.0058 10.1827 9.72778 9.90465 9.52 9.55632C9.31222 9.20798 9.20833 8.82604 9.20833 8.41048C9.20833 7.99493 9.31222 7.61298 9.52 7.26465C9.72778 6.91632 10.0058 6.63826 10.3542 6.43048C10.7025 6.2227 11.0844 6.11882 11.5 6.11882C11.9156 6.11882 12.2975 6.2227 12.6458 6.43048C12.9942 6.63826 13.2722 6.91632 13.48 7.26465C13.6878 7.61298 13.7917 7.99493 13.7917 8.41048C13.7917 8.82604 13.6878 9.20798 13.48 9.55632C13.2722 9.90465 12.9942 10.1827 12.6458 10.3905C12.2975 10.5983 11.9156 10.7021 11.5 10.7021ZM7.39333 15.7438C7.47889 15.0594 7.71111 14.436 8.09 13.8738C8.46889 13.3116 8.95778 12.8716 9.55667 12.5538C10.1556 12.236 10.8033 12.0771 11.5 12.0771C12.1967 12.0771 12.8444 12.236 13.4433 12.5538C14.0422 12.8716 14.5311 13.3116 14.91 13.8738C15.2889 14.436 15.5211 15.0594 15.6067 15.7438H7.39333Z" fill="#204C86"/>
</svg>
