<svg width="23" height="23" viewBox="0 0 23 23" fill="none" xmlns="http://www.w3.org/2000/svg">
<path d="M17.9167 9.32715H18.8333C19.09 9.32715 19.3069 9.41576 19.4842 9.59298C19.6614 9.7702 19.75 9.98715 19.75 10.2438V19.4105C19.75 19.6671 19.6614 19.8841 19.4842 20.0613C19.3069 20.2385 19.09 20.3271 18.8333 20.3271H4.16667C3.91 20.3271 3.69306 20.2385 3.51583 20.0613C3.33861 19.8841 3.25 19.6671 3.25 19.4105V10.2438C3.25 9.98715 3.33861 9.7702 3.51583 9.59298C3.69306 9.41576 3.91 9.32715 4.16667 9.32715H5.08333V8.41048C5.08333 7.24937 5.37667 6.1677 5.96333 5.16548C6.52556 4.19993 7.28944 3.43604 8.255 2.87382C9.25722 2.28715 10.3389 1.99382 11.5 1.99382C12.6611 1.99382 13.7428 2.28715 14.745 2.87382C15.7106 3.43604 16.4744 4.19993 17.0367 5.16548C17.6233 6.1677 17.9167 7.24937 17.9167 8.41048V9.32715ZM5.08333 11.1605V18.4938H17.9167V11.1605H5.08333ZM10.5833 12.9938H12.4167V16.6605H10.5833V12.9938ZM16.0833 9.32715V8.41048C16.0833 7.57937 15.8786 6.81243 15.4692 6.10965C15.0597 5.40687 14.5036 4.85076 13.8008 4.44132C13.0981 4.03187 12.3311 3.82715 11.5 3.82715C10.6689 3.82715 9.90194 4.03187 9.19917 4.44132C8.49639 4.85076 7.94028 5.40687 7.53083 6.10965C7.12139 6.81243 6.91667 7.57937 6.91667 8.41048V9.32715H16.0833Z" fill="#204C86"/>
</svg>
